<?xml version="1.0" encoding="utf-8"?>
<!-- Generator: Adobe Illustrator 22.0.0, SVG Export Plug-In . SVG Version: 6.00 Build 0)  -->
<svg version="1.1" xmlns="http://www.w3.org/2000/svg" xmlns:xlink="http://www.w3.org/1999/xlink" x="0px" y="0px"
	 viewBox="0 0 141.7 141.7" style="enable-background:new 0 0 141.7 141.7;" xml:space="preserve">
<style type="text/css">
	.st0{fill:none;}
	.st1{fill:#D2D427;}
	.st2{fill:#7FB698;}
	.st3{fill:#77A9DD;}
	.st4{fill:#F3CE12;}
	.st5{fill:url(#);}
	.st6{fill:#FFFFFF;}
	.st7{fill:#6A6766;}
	.st8{clip-path:url(#XMLID_2_);fill:#727272;}
	.st9{clip-path:url(#XMLID_2_);fill:#77A9DD;}
	.st10{clip-path:url(#XMLID_2_);fill:#F3CE12;}
	.st11{clip-path:url(#XMLID_2_);fill:#7FB698;}
	.st12{clip-path:url(#XMLID_2_);fill:#D2D427;}
	.st13{clip-path:url(#XMLID_3_);fill:#727272;}
	.st14{clip-path:url(#XMLID_3_);fill:#77A9DD;}
	.st15{clip-path:url(#XMLID_3_);fill:#F3CE12;}
	.st16{clip-path:url(#XMLID_3_);fill:#7FB698;}
	.st17{clip-path:url(#XMLID_3_);fill:#D2D427;}
	.st18{clip-path:url(#XMLID_4_);fill:#727272;}
	.st19{clip-path:url(#XMLID_4_);fill:#77A9DD;}
	.st20{clip-path:url(#XMLID_4_);fill:#F3CE12;}
	.st21{clip-path:url(#XMLID_4_);fill:#7FB698;}
	.st22{clip-path:url(#XMLID_4_);fill:#D2D427;}
	.st23{clip-path:url(#XMLID_36_);fill:#727272;}
	.st24{clip-path:url(#XMLID_36_);fill:#77A9DD;}
	.st25{clip-path:url(#XMLID_36_);fill:#F3CE12;}
	.st26{clip-path:url(#XMLID_36_);fill:#7FB698;}
	.st27{clip-path:url(#XMLID_36_);fill:#D2D427;}
	.st28{clip-path:url(#XMLID_37_);fill:#727272;}
	.st29{clip-path:url(#XMLID_37_);fill:#77A9DD;}
	.st30{clip-path:url(#XMLID_37_);fill:#F3CE12;}
	.st31{clip-path:url(#XMLID_37_);fill:#7FB698;}
	.st32{clip-path:url(#XMLID_37_);fill:#D2D427;}
	.st33{clip-path:url(#XMLID_38_);fill:#727272;}
	.st34{clip-path:url(#XMLID_38_);fill:#77A9DD;}
	.st35{clip-path:url(#XMLID_38_);fill:#F3CE12;}
	.st36{clip-path:url(#XMLID_38_);fill:#7FB698;}
	.st37{clip-path:url(#XMLID_38_);fill:#D2D427;}
	.st38{clip-path:url(#XMLID_39_);fill:#727272;}
	.st39{clip-path:url(#XMLID_39_);fill:#77A9DD;}
	.st40{clip-path:url(#XMLID_39_);fill:#F3CE12;}
	.st41{clip-path:url(#XMLID_39_);fill:#7FB698;}
	.st42{clip-path:url(#XMLID_39_);fill:#D2D427;}
	.st43{clip-path:url(#XMLID_40_);fill:#727272;}
	.st44{clip-path:url(#XMLID_40_);fill:#77A9DD;}
	.st45{clip-path:url(#XMLID_40_);fill:#F3CE12;}
	.st46{clip-path:url(#XMLID_40_);fill:#7FB698;}
	.st47{clip-path:url(#XMLID_40_);fill:#D2D427;}
	.st48{clip-path:url(#XMLID_41_);fill:#727272;}
	.st49{clip-path:url(#XMLID_41_);fill:#77A9DD;}
	.st50{clip-path:url(#XMLID_41_);fill:#F3CE12;}
	.st51{clip-path:url(#XMLID_41_);fill:#7FB698;}
	.st52{clip-path:url(#XMLID_41_);fill:#D2D427;}
	.st53{clip-path:url(#XMLID_42_);fill:#727272;}
	.st54{clip-path:url(#XMLID_42_);fill:#77A9DD;}
	.st55{clip-path:url(#XMLID_42_);fill:#F3CE12;}
	.st56{clip-path:url(#XMLID_42_);fill:#7FB698;}
	.st57{clip-path:url(#XMLID_42_);fill:#D2D427;}
	.st58{clip-path:url(#XMLID_43_);fill:#727272;}
	.st59{clip-path:url(#XMLID_43_);fill:#77A9DD;}
	.st60{clip-path:url(#XMLID_43_);fill:#F3CE12;}
	.st61{clip-path:url(#XMLID_43_);fill:#7FB698;}
	.st62{clip-path:url(#XMLID_43_);fill:#D2D427;}
	.st63{clip-path:url(#XMLID_44_);fill:#727272;}
	.st64{clip-path:url(#XMLID_44_);fill:#77A9DD;}
	.st65{clip-path:url(#XMLID_44_);fill:#F3CE12;}
	.st66{clip-path:url(#XMLID_44_);fill:#7FB698;}
	.st67{clip-path:url(#XMLID_44_);fill:#D2D427;}
	.st68{clip-path:url(#XMLID_45_);fill:#727272;}
	.st69{clip-path:url(#XMLID_45_);fill:#77A9DD;}
	.st70{clip-path:url(#XMLID_45_);fill:#F3CE12;}
	.st71{clip-path:url(#XMLID_45_);fill:#7FB698;}
	.st72{clip-path:url(#XMLID_45_);fill:#D2D427;}
	.st73{clip-path:url(#XMLID_46_);fill:#727272;}
	.st74{clip-path:url(#XMLID_46_);fill:#77A9DD;}
	.st75{clip-path:url(#XMLID_46_);fill:#F3CE12;}
	.st76{clip-path:url(#XMLID_46_);fill:#7FB698;}
	.st77{clip-path:url(#XMLID_46_);fill:#D2D427;}
	.st78{clip-path:url(#XMLID_47_);fill:#727272;}
	.st79{clip-path:url(#XMLID_47_);fill:#77A9DD;}
	.st80{clip-path:url(#XMLID_47_);fill:#F3CE12;}
	.st81{clip-path:url(#XMLID_47_);fill:#7FB698;}
	.st82{clip-path:url(#XMLID_47_);fill:#D2D427;}
	.st83{clip-path:url(#XMLID_48_);fill:#727272;}
	.st84{clip-path:url(#XMLID_48_);fill:#77A9DD;}
	.st85{clip-path:url(#XMLID_48_);fill:#F3CE12;}
	.st86{clip-path:url(#XMLID_48_);fill:#7FB698;}
	.st87{clip-path:url(#XMLID_48_);fill:#D2D427;}
	.st88{clip-path:url(#XMLID_49_);fill:#727272;}
	.st89{clip-path:url(#XMLID_49_);fill:#77A9DD;}
	.st90{clip-path:url(#XMLID_49_);fill:#F3CE12;}
	.st91{clip-path:url(#XMLID_49_);fill:#7FB698;}
	.st92{clip-path:url(#XMLID_49_);fill:#D2D427;}
	.st93{clip-path:url(#XMLID_50_);fill:#727272;}
	.st94{clip-path:url(#XMLID_50_);fill:#77A9DD;}
	.st95{clip-path:url(#XMLID_50_);fill:#F3CE12;}
	.st96{clip-path:url(#XMLID_50_);fill:#7FB698;}
	.st97{clip-path:url(#XMLID_50_);fill:#D2D427;}
	.st98{fill:#343A40;}
	.st99{opacity:0.1;}
	.st100{fill:#585857;}
	.st101{fill:#505050;}
	.st102{fill:none;stroke:#696766;stroke-width:0.2;stroke-linecap:round;stroke-linejoin:round;stroke-miterlimit:10;}
	.st103{fill:none;stroke:#7FB698;stroke-width:0.2;stroke-linecap:round;stroke-linejoin:round;stroke-miterlimit:10;}
	.st104{fill:#696766;}
	.st105{fill:none;stroke:#D2D427;stroke-width:0.3;stroke-linecap:round;stroke-linejoin:round;stroke-miterlimit:10;}
	.st106{fill:none;stroke:#F3CE12;stroke-width:0.3;stroke-linecap:round;stroke-linejoin:round;stroke-miterlimit:10;}
	.st107{fill:none;stroke:#7FB698;stroke-width:0.3;stroke-linecap:round;stroke-linejoin:round;stroke-miterlimit:10;}
	.st108{fill:none;stroke:#77A9DD;stroke-width:0.3;stroke-linecap:round;stroke-linejoin:round;stroke-miterlimit:10;}
</style>
<g id="texture">
</g>
<g id="impianto">
</g>
<g id="logo">
	<g id="XMLID_189_">
		<path id="XMLID_116_" class="st98" d="M34.6,84.6c0,11.5,9.3,20.8,20.8,20.8c11.5,0,20.8-9.3,20.8-20.8S67,63.8,55.4,63.8
			C43.9,63.8,34.6,73.1,34.6,84.6z M67.9,84.6c0,6.9-5.6,12.5-12.5,12.5c-6.9,0-12.5-5.6-12.5-12.5s5.6-12.5,12.5-12.5
			C62.3,72.1,67.9,77.7,67.9,84.6z"/>
		<path id="XMLID_113_" class="st98" d="M87.8,117.1L87.8,117.1c3.8,4.8,9.7,8,16.4,8c11.5,0,20.8-9.3,20.8-20.8
			c0-11.5-9.3-20.8-20.8-20.8c-11.4,0-20.7,9.2-20.8,20.5l0,0c0,0,0,0,0,0.1c0,0.1,0,0.2,0,0.3c0,0.1,0,0.2,0,0.3
			c-0.1,1-0.5,2.8-2.9,3.7L35.8,124l0,0c-2.1,0.7-4.3,1.1-6.6,1.1c-11.5,0-20.8-9.3-20.8-20.8c0-4.5,1.4-8.6,3.8-12l0,0L58.4,27l0,0
			c2.1-3.2,2.7-7.3,1.4-11.1c-2.3-6.5-9.5-9.9-16-7.5L2.8,22.8c-2.2,0.8-3.3,3.2-2.5,5.3c0.8,2.2,3.2,3.3,5.3,2.5l41-14.5
			c2.2-0.8,4.6,0.4,5.3,2.5c0.5,1.4,0.2,2.8-0.6,3.9L5.2,87.6l0,0C1.9,92.3,0,98,0,104.2c0,16.1,13.1,29.2,29.2,29.2
			c3.6,0,7-0.7,10.1-1.8l0,0l44-15.6C86.1,115,87.8,117.1,87.8,117.1z M104.2,91.7c6.9,0,12.5,5.6,12.5,12.5s-5.6,12.5-12.5,12.5
			s-12.5-5.6-12.5-12.5S97.3,91.7,104.2,91.7z"/>
		<path id="XMLID_112_" class="st98" d="M104.2,66.7C88.1,66.7,75,53.6,75,37.5c0-16.1,13.1-29.2,29.2-29.2
			c12.8,0,23.6,8.2,27.5,19.6l0,0c0.8,2.2,3.2,3.3,5.3,2.5c2.2-0.8,3.3-3.2,2.5-5.3c0,0,0-0.1-0.1-0.1c-5.1-14.6-19-25-35.4-25
			C83.5,0,66.7,16.8,66.7,37.5S83.5,75,104.2,75c16.1,0,29.2,13.1,29.2,29.2c0,16.1-13.1,29.2-29.2,29.2c-7.2,0-13.8-2.6-18.9-7l0,0
			c-1.6-1.6-4.2-1.7-5.9-0.1c-1.6,1.6-1.7,4.2-0.1,5.9l0,0c6.6,5.9,15.3,9.4,24.9,9.4c20.7,0,37.5-16.8,37.5-37.5
			S124.9,66.7,104.2,66.7z"/>
		<path id="XMLID_111_" class="st98" d="M123.9,30.6c0-0.1-0.1-0.2-0.2-0.3c-2.9-7.9-10.6-13.6-19.5-13.6
			c-11.5,0-20.8,9.3-20.8,20.8c0,11.5,9.3,20.8,20.8,20.8c5.8,0,11-2.4,14.8-6.1c0,0,0.1,0,0.1-0.1c1.6-1.6,1.5-4.2-0.1-5.8
			c-1.6-1.6-4.3-1.6-5.9,0l0,0c-2.3,2.3-5.4,3.7-8.9,3.7c-6.9,0-12.5-5.6-12.5-12.5S97.3,25,104.2,25c3.5,0,6.6,1.4,8.8,3.7h0
			c0,0,0.9,1-0.4,1.4l0,0l-9.9,3.5l0,0c-0.6,0.2-1.1,0.5-1.5,1c-1.6,1.6-1.6,4.3,0,5.9c1.2,1.2,2.9,1.5,4.3,1l0,0l15.7-5.5
			C123.5,35.1,124.6,32.8,123.9,30.6z"/>
	</g>
</g>
<g id="geometry">
</g>
</svg>
