<?xml version="1.0" encoding="utf-8"?>
<!-- Generator: Adobe Illustrator 22.0.0, SVG Export Plug-In . SVG Version: 6.00 Build 0)  -->
<svg version="1.1" id="Livello_1" xmlns="http://www.w3.org/2000/svg" xmlns:xlink="http://www.w3.org/1999/xlink" x="0px" y="0px"
	 viewBox="0 0 141.7 141.7" style="enable-background:new 0 0 141.7 141.7;" xml:space="preserve">
<style type="text/css">
	.st0{fill:#343A40;}
</style>
<title>Tavola disegno 1</title>
<g id="logo">
	<g id="_Gruppo_">
		<path id="_Tracciato_composto_2" class="st0" d="M87.8,117.1L87.8,117.1c7.1,9.1,20.2,10.7,29.3,3.6s10.7-20.2,3.6-29.3
			s-20.2-10.7-29.3-3.6c-5,3.9-7.9,9.8-8,16.1v0.1c0,0.1,0,0.2,0,0.2c0,0.1,0,0.2,0,0.3c-0.1,1.7-1.3,3.2-2.9,3.7L35.8,124l0,0
			c-10.9,3.7-22.7-2.2-26.4-13.1c-2.1-6.3-1.1-13.2,2.7-18.7l0,0L58.4,27l0,0c3.9-5.7,2.4-13.5-3.4-17.3c-3.3-2.2-7.5-2.8-11.3-1.4
			L2.8,22.7c-2.2,0.7-3.4,3-2.7,5.2s3,3.4,5.2,2.7c0.1,0,0.2-0.1,0.3-0.1l41-14.5c2.2-0.8,4.5,0.3,5.3,2.5c0.5,1.3,0.3,2.8-0.6,3.9
			L5.2,87.6l0,0c-9.2,13.2-6,31.4,7.1,40.6c7.9,5.5,18,6.8,27,3.4l0,0l44-15.6C84.9,115.4,86.7,115.8,87.8,117.1z M104.2,91.7
			c6.9,0,12.5,5.6,12.5,12.5c0,6.9-5.6,12.5-12.5,12.5c-6.9,0-12.5-5.6-12.5-12.5c0,0,0,0,0,0C91.7,97.3,97.3,91.7,104.2,91.7z"/>
		<path id="_Tracciato_" class="st0" d="M104.2,66.7c-16.1,0-29.2-13-29.2-29.1c0-16.1,13-29.2,29.1-29.2c12.5,0,23.6,7.9,27.6,19.7
			l0,0c0.7,2.2,3.1,3.4,5.3,2.7c2.2-0.7,3.4-3.1,2.7-5.3c0-0.1,0-0.1-0.1-0.2c0,0,0-0.1-0.1-0.1C132.7,5.5,111.2-4.7,91.7,2.2
			S61.9,30.5,68.8,50c5.3,15,19.5,25,35.4,25c16.1,0,29.2,13,29.2,29.2s-13,29.2-29.2,29.2c-6.9,0-13.6-2.5-18.9-6.9l0,0
			c-1.6-1.7-4.3-1.7-5.9-0.1c-1.7,1.6-1.7,4.3-0.1,5.9l0,0c15.5,13.7,39.2,12.3,52.9-3.2s12.3-39.2-3.2-52.9
			C122.2,70.1,113.3,66.7,104.2,66.7L104.2,66.7z"/>
		<path id="_Tracciato_2" class="st0" d="M123.9,30.6c0-0.1-0.1-0.2-0.2-0.3c-4-10.8-16-16.2-26.8-12.2s-16.2,16-12.2,26.8
			s16,16.2,26.8,12.2c2.8-1.1,5.3-2.7,7.5-4.8l0.1-0.1c1.6-1.6,1.6-4.2,0-5.7c0,0,0,0-0.1-0.1c-1.6-1.6-4.3-1.6-5.9,0l0,0
			c-4.9,4.9-12.8,4.9-17.7,0c-4.9-4.9-4.9-12.8,0-17.7s12.8-4.9,17.7,0c0,0,0,0,0,0l0,0c0.3,0.3,0.4,0.8,0.1,1.1
			c-0.1,0.2-0.3,0.3-0.5,0.3l0,0l-9.8,3.5l0,0c-0.6,0.2-1.1,0.6-1.6,1c-1.6,1.6-1.6,4.3,0,5.9c1.1,1.1,2.8,1.5,4.3,1l0,0l15.7-5.5
			C123.5,35.2,124.6,32.8,123.9,30.6C123.9,30.6,123.9,30.6,123.9,30.6z"/>
	</g>
</g>
</svg>
