<?xml version="1.0" encoding="utf-8"?>
<!-- Generator: Adobe Illustrator 22.0.0, SVG Export Plug-In . SVG Version: 6.00 Build 0)  -->
<svg version="1.1" id="Livello_1" xmlns="http://www.w3.org/2000/svg" xmlns:xlink="http://www.w3.org/1999/xlink" x="0px" y="0px"
	 viewBox="0 0 85 85" style="enable-background:new 0 0 85 85;" xml:space="preserve">
<style type="text/css">
	.st0{fill:#FFFFFF;}
</style>
<g>
	<path class="st0" d="M23.9,32.1c-3.1,0-5.6,2.5-5.6,5.6c0,3.1,2.5,5.6,5.6,5.6c3.1,0,5.6-2.5,5.6-5.6C29.5,34.6,27,32.1,23.9,32.1z
		 M23.9,40c-1.2,0-2.3-1-2.3-2.3s1-2.3,2.3-2.3c1.2,0,2.3,1,2.3,2.3S25.2,40,23.9,40z"/>
	<path class="st0" d="M61.1,32.1c-3.1,0-5.6,2.5-5.6,5.6c0,3.1,2.5,5.6,5.6,5.6c3.1,0,5.6-2.5,5.6-5.6
		C66.7,34.6,64.2,32.1,61.1,32.1z M61.1,40c-1.2,0-2.3-1-2.3-2.3s1-2.3,2.3-2.3c1.2,0,2.3,1,2.3,2.3S62.4,40,61.1,40z"/>
	<path class="st0" d="M52.1,32.1c-0.9,0-1.7,0.7-1.7,1.7v2.3H49v-2.3c0-0.9-0.7-1.7-1.7-1.7c-0.9,0-1.7,0.7-1.7,1.7v2.3h-1.4v-2.3
		c0-0.9-0.7-1.7-1.7-1.7c-0.9,0-1.7,0.7-1.7,1.7v2.3h-1.4v-2.3c0-0.9-0.7-1.7-1.7-1.7c-0.9,0-1.7,0.7-1.7,1.7v2.3h-1.3v-2.3
		c0-0.9-0.7-1.7-1.7-1.7c-0.9,0-1.7,0.7-1.7,1.7v7.9c0,0.9,0.7,1.7,1.7,1.7c0.9,0,1.7-0.7,1.7-1.7v-2.3h1.3v2.3
		c0,0.9,0.7,1.7,1.7,1.7c0.9,0,1.7-0.7,1.7-1.7v-2.3h1.4v2.3c0,0.9,0.7,1.7,1.7,1.7c0.9,0,1.7-0.7,1.7-1.7v-2.3h1.4v2.3
		c0,0.9,0.7,1.7,1.7,1.7c0.9,0,1.7-0.7,1.7-1.7v-2.3h1.4v2.3c0,0.9,0.7,1.7,1.7,1.7c0.9,0,1.7-0.7,1.7-1.7v-7.9
		C53.7,32.9,53,32.1,52.1,32.1z"/>
	<path class="st0" d="M80.1,16.5h-1.8c-1.6,0-3,0.8-4,2l-4.5,6.3c0,0,0,0,0,0l-1,1.5L66.7,12c-0.5-3.6-3.6-6.3-7.2-6.3H25.4
		c-3.6,0-6.7,2.7-7.2,6.3l-2,14l-0.8-1.2c0,0,0,0,0,0l-4.5-6.3c-0.9-1.3-2.4-2-4-2H4.9c-2.7,0-4.9,2.2-4.9,4.9v1.1
		c0,2.7,2.2,4.9,4.9,4.9h8.2l1.6,2.2c-0.4,0.6-0.6,1.3-0.7,2l-0.2,1.6H9.2c-0.3,0-0.6,0-0.9,0.1c-3.4,0.5-6,3.5-6,7V42
		c0,1.1,0.9,2.1,2.1,2.1c0.6,0,1.2-0.3,1.5-0.7c1.1-1.3,2.7-2,4.4-2h2.6l-0.1,1.3c0,0.2,0,0.3,0,0.5c0,0.5,0.1,1,0.2,1.5H8.7
		c-2.7,0-4.9,2.2-4.9,4.9v24.7c0,2.7,2.2,4.9,4.9,4.9h11.1c2.7,0,4.9-2.2,4.9-4.9v-7.7h3.5l3,4.2c0.3,0.4,0.8,0.7,1.4,0.7h20
		c0.5,0,1-0.3,1.4-0.7l3-4.2h3.4v7.7c0,2.7,2.2,4.9,4.9,4.9h11.1c2.7,0,4.9-2.2,4.9-4.9V49.7c0-2.7-2.2-4.9-4.9-4.9H72
		c0.2-0.5,0.2-1,0.2-1.5c0-0.2,0-0.3,0-0.5l-0.1-1.3h2.7c1.7,0,3.3,0.7,4.4,2c0.4,0.4,1,0.7,1.6,0.7c1.1,0,2.1-0.9,2.1-2.1v-1.7
		c0-3.5-2.6-6.5-6-7c-0.3,0-0.6-0.1-0.9-0.1h-4.6l-0.2-1.6c-0.1-0.7-0.3-1.4-0.7-2l1.6-2.2h8.2c2.7,0,4.9-2.2,4.9-4.9v-1.1
		C85,18.7,82.8,16.5,80.1,16.5z M4.9,24.1c-0.9,0-1.6-0.7-1.6-1.6v-1.1c0-0.9,0.7-1.6,1.6-1.6h1.8c0.5,0,1,0.2,1.3,0.7l2.6,3.6H4.9z
		 M21.4,12.5c0.3-1.9,2-3.4,3.9-3.4h34.1c2,0,3.7,1.5,3.9,3.4v0l2.2,14.9h-2l-2-14.6c-0.1-1-1-1.8-2.1-1.8H39.5
		c-0.9,0-1.7,0.7-1.7,1.7c0,0.9,0.7,1.7,1.7,1.7h18.9l1.8,13.1H24.6l1.9-13.1h0.5c0.9,0,1.7-0.7,1.7-1.7c0-0.9-0.7-1.7-1.7-1.7h-1.6
		c-1,0-1.9,0.8-2.1,1.8l-2.1,14.6h-1.9L21.4,12.5z M10.3,38.1c-1.6,0-3.2,0.4-4.5,1.2c0.4-1.4,1.5-2.4,3-2.6c0.2,0,0.3,0,0.4,0h4.2
		l-0.2,1.5H10.3z M21.4,50.4l-3,3.3c-0.6,0.7-0.6,1.7,0.1,2.3c0.3,0.3,0.7,0.4,1.1,0.4c0.4,0,0.9-0.2,1.2-0.5l0.6-0.6v3.9l-3,3.3
		c-0.6,0.7-0.6,1.7,0.1,2.3c0.3,0.3,0.7,0.4,1.1,0.4c0.4,0,0.9-0.2,1.2-0.5l0.6-0.6V68l-3,3.3c-0.6,0.7-0.6,1.7,0.1,2.3
		c0.3,0.3,0.7,0.4,1.1,0.4c0.4,0,0.9-0.2,1.2-0.5l0.6-0.6v1.5c0,0.9-0.7,1.6-1.6,1.6h-3.9V52.3c0-0.9-0.7-1.7-1.7-1.7
		s-1.7,0.7-1.7,1.7V76H8.7c-0.9,0-1.6-0.7-1.6-1.6v-1.5l0.6,0.6C8,73.8,8.5,74,8.9,74c0.4,0,0.8-0.1,1.1-0.4
		c0.7-0.6,0.7-1.7,0.1-2.3l-3-3.3v-3.9l0.6,0.6c0.3,0.4,0.8,0.5,1.2,0.5c0.4,0,0.8-0.1,1.1-0.4c0.7-0.6,0.7-1.7,0.1-2.3l-3-3.3v-3.9
		l0.6,0.6c0.3,0.4,0.8,0.5,1.2,0.5c0.4,0,0.8-0.1,1.1-0.4c0.7-0.6,0.7-1.7,0.1-2.3l-3-3.3v-0.7c0-0.9,0.7-1.6,1.6-1.6h11.1
		c0.9,0,1.6,0.7,1.6,1.6V50.4z M27.4,63.3h-2.7V61h2.7V63.3z M27.4,57.7h-2.7v-8c0-0.6-0.1-1.1-0.3-1.6H25l2.4,4.2V57.7z M51.7,68.2
		H33.4l-1.1-1.6h20.5L51.7,68.2z M54.8,50.2H52c-0.9,0-1.7,0.7-1.7,1.7v0c0,0.9,0.7,1.7,1.7,1.7h2.2v5.8c0,0,0,0,0,0v3.9H30.7v-9.8
		h8.7c0.9,0,1.7-0.7,1.7-1.7v0c0-0.9-0.7-1.7-1.7-1.7H30l-1.2-2.1H56L54.8,50.2z M60.3,63.3h-2.8V61h2.8V63.3z M60.3,49.7v8h-2.8
		v-5.6l2.2-4h0.8C60.4,48.6,60.3,49.2,60.3,49.7z M17.6,44.8c-0.8,0-1.5-0.7-1.5-1.5c0-0.1,0-0.1,0-0.2L17.2,32
		c0.1-0.8,0.7-1.4,1.5-1.4h47.5c0.4,0,0.7,0.1,1,0.4c0,0,0,0,0,0c0.3,0.2,0.5,0.6,0.5,1l0.8,7.5l0,0.5c0,0,0,0,0,0l0.3,3.1
		c0,0.1,0,0.1,0,0.2c0,0.8-0.7,1.5-1.5,1.5h-2.2H17.6z M75.9,36.6c0.1,0,0.3,0,0.4,0c1.4,0.2,2.6,1.3,3,2.6
		c-1.4-0.8-2.9-1.2-4.5-1.2h-3l-0.2-1.5H75.9z M76.3,48.1c0.9,0,1.6,0.7,1.6,1.6v0.7l-3,3.3c-0.6,0.7-0.6,1.7,0.1,2.3
		c0.3,0.3,0.7,0.4,1.1,0.4c0.4,0,0.9-0.2,1.2-0.5l0.6-0.6v3.9l-3,3.3c-0.6,0.7-0.6,1.7,0.1,2.3c0.3,0.3,0.7,0.4,1.1,0.4
		c0.4,0,0.9-0.2,1.2-0.5l0.6-0.6V68l-3,3.3c-0.6,0.7-0.6,1.7,0.1,2.3c0.3,0.3,0.7,0.4,1.1,0.4c0.4,0,0.9-0.2,1.2-0.5l0.6-0.6v1.5
		c0,0.9-0.7,1.6-1.6,1.6h-3.9V52.3c0-0.9-0.7-1.7-1.7-1.7c-0.9,0-1.7,0.7-1.7,1.7V76h-3.9c-0.9,0-1.6-0.7-1.6-1.6v-1.5l0.6,0.6
		c0.3,0.4,0.8,0.5,1.2,0.5c0.4,0,0.8-0.1,1.1-0.4c0.7-0.6,0.7-1.7,0.1-2.3l-3-3.3v-3c0,0,0,0,0,0v-0.9l0.6,0.6
		c0.3,0.4,0.8,0.5,1.2,0.5c0.4,0,0.8-0.1,1.1-0.4c0.7-0.6,0.7-1.7,0.1-2.3l-3-3.3v-3.9l0.6,0.6c0.3,0.4,0.8,0.5,1.2,0.5
		c0.4,0,0.8-0.1,1.1-0.4c0.7-0.6,0.7-1.7,0.1-2.3l-3-3.3v-0.7c0-0.9,0.7-1.6,1.6-1.6H76.3z M81.7,22.6c0,0.9-0.7,1.6-1.6,1.6h-5.8
		l2.6-3.6c0.3-0.4,0.8-0.7,1.3-0.7h1.8c0.9,0,1.6,0.7,1.6,1.6V22.6z"/>
	<path class="st0" d="M33.4,14.3c0.7,0,1.3-0.5,1.5-1.2c0.2-0.6,0-1.3-0.5-1.8c-0.6-0.5-1.4-0.5-2-0.1c-0.6,0.4-0.9,1.3-0.6,2
		C32,13.9,32.7,14.3,33.4,14.3z"/>
	<path class="st0" d="M46.8,53.3c0.7-0.4,1-1.3,0.7-2c-0.3-0.6-0.9-1.1-1.6-1c-0.7,0-1.3,0.5-1.5,1.2c-0.2,0.7,0,1.4,0.6,1.8
		C45.5,53.6,46.2,53.6,46.8,53.3z"/>
</g>
</svg>
