<?xml version="1.0" encoding="utf-8"?>
<!-- Generator: Adobe Illustrator 22.0.0, SVG Export Plug-In . SVG Version: 6.00 Build 0)  -->
<svg version="1.1" id="Livello_1" xmlns="http://www.w3.org/2000/svg" xmlns:xlink="http://www.w3.org/1999/xlink" x="0px" y="0px"
	 viewBox="0 0 85 85" style="enable-background:new 0 0 85 85;" xml:space="preserve">
<style type="text/css">
	.st0{fill:#FFFFFF;}
</style>
<g>
	<g>
		<path class="st0" d="M84.7,45c-0.5-0.7-1.6-0.9-2.3-0.4L77.8,48c1.3-1.9,2.1-4.1,2.4-6.4c0.9-7.9-4.7-15.1-12.7-16.1
			c-4.2-0.5-8.2,0.9-11.2,3.4l-9.2-8.4v-3.8c0.5-0.1,0.9-0.1,1.4-0.2l1-0.1c2.1-0.1,3.8-1.7,4.1-3.7l0.1-0.9
			c0.2-1.1-0.1-2.2-0.7-3.1c-1.3-1.9-3.8-2.6-5.9-1.4l-9.6,5.4c-1.2,0.7-1.8,1.9-1.7,3.2c0.1,1,0.7,1.9,1.5,2.5
			c0.5,0.4,1.2,0.5,1.8,0.5c0.4,0,0.8-0.1,1.1-0.2l3.3-1.2V20L18,28.3L13,25.9l-0.2-0.8c-0.2-0.9-1.2-1.4-2-1.1
			c-0.9,0.2-1.4,1.2-1.1,2l0.4,1.5c0.1,0.5,0.5,0.8,0.9,1.1l5.4,2.5V35c0,0,0,0,0,0v5.8c-2.6,0.3-5.2,1.3-7.3,3
			c-3,2.4-5,5.8-5.4,9.7c-0.9,7.8,4.6,14.9,12.3,16l-3.1,2.2c-0.8,0.6-1.7,0.9-2.7,1.1L1.4,74c-0.9,0.1-1.5,1-1.4,1.9
			c0.1,0.8,0.8,1.4,1.6,1.4c0.1,0,0.2,0,0.2,0l8.6-1.2c1.5-0.2,2.9-0.8,4.2-1.7l6.3-4.5c1.2-0.9,2.8-1.3,4.3-1.1l6.3,0.7
			c2.8,0.3,5.6-0.6,7.6-2.6l4.3-4.1c1.4-1.3,3.2-1.9,5.1-1.6l4.1,0.6c2.7,0.4,5.5-0.4,7.6-2.3l4-3.6c1.2-1,2.3-1.7,3.3-1.8l5.4-0.3
			c0,0,0.1,0,0.1,0c1.6-0.2,3.2-0.8,4.5-1.8l6.7-4.9C85.1,46.8,85.3,45.7,84.7,45L84.7,45z M65.8,28.7c0.4,0,0.9,0,1.3,0.1
			c6.1,0.7,10.5,6.3,9.8,12.4c-0.7,6.1-6.3,10.5-12.4,9.8c-3.7-0.4-6.8-2.6-8.4-5.7l10.3-3.8c0.5-0.2,0.9-0.7,1.1-1.2
			c0.1-0.6-0.1-1.2-0.5-1.5l-8.1-7.4C60.8,29.6,63.2,28.7,65.8,28.7L65.8,28.7z M50,43.8c-0.2-0.2-0.4-0.4-0.6-0.6
			c-0.6-0.6-1.4-1.1-2.2-1.3V25l6.9,6.3c-1.4,1.9-2.4,4.2-2.7,6.8c-0.2,1.8-0.1,3.5,0.3,5.2L50,43.8C50.1,43.9,50,43.9,50,43.8
			L50,43.8z M43.6,46c0.1-0.2,0.3-0.4,0.5-0.5c0.2-0.2,0.4-0.3,0.7-0.4c0.5-0.2,1-0.2,1.5,0c1,0.3,1.7,1.4,1.6,2.5
			c-0.1,0.9-0.7,1.7-1.5,2c-0.8,0.3-1.8,0.1-2.4-0.5C43.1,48.2,43,47,43.6,46L43.6,46z M54.8,38.5c0.2-1.8,0.9-3.5,1.8-4.9l6.1,5.6
			l-7.8,2.9C54.7,40.9,54.6,39.7,54.8,38.5L54.8,38.5z M39.5,15.7C39.5,15.7,39.5,15.7,39.5,15.7C39.4,15.7,39.4,15.7,39.5,15.7
			C39.4,15.7,39.4,15.7,39.5,15.7l9.5-5.5c0.5-0.3,1.2-0.1,1.5,0.4c0.2,0.4,0.1,0.7,0.1,1.1c-0.1,0.3-0.1,0.7-0.3,0.9
			c-0.2,0.3-0.6,0.5-1,0.5c-0.3,0-0.6,0-0.9,0c-1.1,0.1-2.3,0.3-3.3,0.6c0,0,0,0,0,0c-0.2,0-0.3,0.1-0.5,0.2L39.5,15.7z M43.9,41.9
			c-1,0.3-1.9,0.9-2.6,1.7l-21.7-9.7v-2.6l24.4-7.8V41.9z M6.8,53.9c0.4-3,1.8-5.6,4.2-7.4c1.5-1.2,3.3-2,5.2-2.3V49
			c0,0.9,0.7,1.7,1.7,1.7c0.9,0,1.7-0.7,1.7-1.7v-4.8c5.9,0.9,10.1,6.3,9.4,12.3c-0.4,3-1.8,5.6-4.2,7.4c-2.3,1.8-5.3,2.7-8.2,2.3
			C10.5,65.5,6.1,60,6.8,53.9L6.8,53.9z M58.1,57.1c-1.4,1.2-3.1,1.7-4.9,1.5l-4.1-0.6c-2.9-0.4-5.8,0.5-7.9,2.5l-4.3,4.1
			c-1.3,1.3-3.1,1.9-5,1.7l-4.2-0.5c2.5-2.3,4.1-5.4,4.5-8.9c0.9-7.9-4.7-15.1-12.7-16.1c0,0,0,0,0,0v-3.3L40,46.7
			c0,0.2,0,0.5,0,0.7c0,3.1,2.5,5.7,5.7,5.7c3.1,0,5.7-2.5,5.7-5.7c0-0.1,0-0.2,0-0.3l1.7-0.6c1.8,3.5,5,6.2,9,7.4L58.1,57.1z
			 M58.1,57.1"/>
	</g>
	<path class="st0" d="M17.1,56c0.6,0.4,1.4,0.4,1.9-0.1c0.6-0.4,0.8-1.2,0.6-1.8c-0.2-0.6-0.8-1.1-1.5-1.2c-0.7-0.1-1.4,0.4-1.7,1
		C16.2,54.7,16.4,55.6,17.1,56L17.1,56z M17.1,56"/>
	<path class="st0" d="M54.4,72.2c-0.6,0.7-1.4,0.8-2,0.7c-0.7-0.1-1.4,0.2-1.7,0.7c-0.6,1,0,2.3,1.1,2.5c0.3,0.1,0.7,0.1,1.1,0.1
		c1.3,0,2.7-0.5,4-1.8c0.6-0.7,0.6-1.7-0.1-2.4C56.1,71.4,55.1,71.5,54.4,72.2L54.4,72.2z M54.4,72.2"/>
	<path class="st0" d="M75.9,62.5c-2.7-1-4.7,0.3-4.9,0.5c-0.7,0.5-0.9,1.6-0.4,2.3c0.3,0.5,0.8,0.7,1.4,0.7c0.3,0,0.7-0.1,1-0.3
		c0,0,0.8-0.5,1.9-0.1c0.9,0.3,1.8-0.1,2.1-1C77.2,63.8,76.7,62.8,75.9,62.5L75.9,62.5z M75.9,62.5"/>
	<g>
		<path class="st0" d="M71,75.2c-0.3-0.6-0.9-1.1-1.6-1c-0.7,0-1.3,0.5-1.5,1.2c-0.2,0.7,0,1.4,0.6,1.8c0.6,0.4,1.4,0.5,1.9,0.1
			C71,76.8,71.3,75.9,71,75.2L71,75.2z M71,75.2"/>
		<path class="st0" d="M33,74.8c-1-0.1-1.9,0-2.6,0.3c-1.3,0.4-1.5,2.1-0.4,2.9c0,0,0.1,0,0.1,0.1c0.4,0.3,0.9,0.3,1.4,0.2
			c0.3-0.1,0.6-0.1,1.1-0.1c0.9,0.1,1.7-0.6,1.8-1.5C34.6,75.7,33.9,74.9,33,74.8L33,74.8z M33,74.8"/>
	</g>
</g>
</svg>
