<?xml version="1.0" encoding="utf-8"?>
<!-- Generator: Adobe Illustrator 22.0.0, SVG Export Plug-In . SVG Version: 6.00 Build 0)  -->
<svg version="1.1" id="Livello_1" xmlns="http://www.w3.org/2000/svg" xmlns:xlink="http://www.w3.org/1999/xlink" x="0px" y="0px"
	 viewBox="0 0 85 85" style="enable-background:new 0 0 85 85;" xml:space="preserve">
<style type="text/css">
	.st0{fill:#FFFFFF;}
</style>
<g>
	<g>
		<path class="st0" d="M80.2,27.7c0.1,0,0.2,0,0.2,0c1.2,0,2.3-0.5,3.2-1.3c0.9-0.9,1.4-2.1,1.4-3.3V17c0-1.3-0.5-2.5-1.4-3.4
			c-0.9-0.9-2.2-1.3-3.4-1.3c-8.6,0.5-12.9,2.8-14.4,3.7h-6.1c-0.9,0-1.7,0.7-1.7,1.7c0,0.9,0.7,1.7,1.7,1.7h4.9v1.4H20.4v-1.4h26.7
			c0.9,0,1.7-0.7,1.7-1.7c0-0.9-0.7-1.7-1.7-1.7H19.3c-1.4-0.9-5.8-3.2-14.4-3.7c-1.3-0.1-2.5,0.4-3.4,1.3C0.6,14.5,0,15.7,0,17v6.2
			c0,1.3,0.5,2.5,1.4,3.3c0.9,0.8,2,1.3,3.2,1.3c0.1,0,0.2,0,0.2,0c8.6-0.5,12.9-2.8,14.4-3.7h0.4c-0.3,0.6-0.4,1.3-0.4,2
			c0,0.9,0.2,1.8,0.7,2.6L29.6,46v10.8c-1.1,0.7-2.1,1.6-3,2.6c-1.8,2.1-3.1,4.5-3.6,7.2c-2-0.3-4,0.3-5.6,1.8l0,0
			c-0.6,0.6-1.4,0.9-2.2,0.9c0,0,0,0,0,0c-0.8,0-1.6-0.3-2.2-0.9c-1.2-1.2-2.8-1.9-4.6-1.9c0,0,0,0,0,0c-1.7,0-3.3,0.7-4.6,1.9l0,0
			c-0.6,0.6-1.4,0.9-2.2,0.9C0.7,69.4,0,70.1,0,71c0,0.9,0.7,1.7,1.7,1.7c1.7,0,3.3-0.7,4.6-1.9l0,0c0.6-0.6,1.4-0.9,2.2-0.9h0
			c0.8,0,1.6,0.3,2.2,0.9c1.2,1.2,2.8,1.9,4.6,1.9h0c1.7,0,3.3-0.7,4.6-1.9l0,0c1.1-1.1,2.7-1.2,3.9-0.4c0.5,0.3,0.9,0.8,1.3,1.1
			c1.1,0.8,2.4,1.2,3.8,1.2c1.5,0,2.9-0.5,4-1.4c0.4-0.3,0.7-0.7,1.1-0.9c0.5-0.3,1.1-0.5,1.7-0.5h0c0.4,0,0.7,0.1,1,0.2
			c0.4,0.2,0.8,0.4,1.2,0.7c0.4,0.4,0.9,0.8,1.5,1.1c0,0,0,0,0.1,0c0,0,0.1,0,0.1,0c0.1,0,0.1,0.1,0.2,0.1c0,0,0,0,0,0
			c0.8,0.4,1.8,0.6,2.7,0.6h0c1.7,0,3.3-0.7,4.6-1.9c1.2-1.2,3.2-1.2,4.5,0c1.3,1.3,2.9,1.9,4.6,1.9c1.7,0,3.3-0.6,4.6-1.9
			c0.2-0.2,0.5-0.5,0.8-0.6c0.4-0.2,0.9-0.3,1.4-0.3h0c0.8,0,1.6,0.3,2.2,0.9c1.2,1.2,2.8,1.9,4.6,1.9h0c1.7,0,3.3-0.7,4.6-1.9l0,0
			c0.6-0.6,1.4-0.9,2.2-0.9c0.8,0,1.6,0.3,2.2,0.9l0,0c1.3,1.3,3,2,4.8,1.9c0.9,0,1.6-0.8,1.6-1.7c0-0.9-0.8-1.6-1.7-1.6
			c-0.9,0-1.7-0.3-2.3-0.9l0,0c-1.2-1.2-2.8-1.9-4.6-1.9c-1.7,0-3.3,0.7-4.6,1.9l0,0c-0.6,0.6-1.4,0.9-2.2,0.9c0,0,0,0,0,0
			c-0.8,0-1.6-0.3-2.2-0.9c-1.2-1.2-2.8-1.9-4.6-1.9c0,0,0,0,0,0c-0.3,0-0.5,0-0.8,0c-0.6-2.7-1.8-5.1-3.7-7.2
			c-0.9-1-1.9-1.9-2.9-2.6V46l9.7-17.3c0.8-1.4,0.9-3.1,0.3-4.6h0.4C67.2,25,71.6,27.3,80.2,27.7L80.2,27.7z M80.4,15.7
			c0.4,0,0.7,0.1,1,0.4c0.3,0.2,0.4,0.6,0.4,0.9v6.2c0,0.4-0.1,0.7-0.4,0.9c-0.3,0.2-0.6,0.4-1,0.4c-7.2-0.4-11-2.1-12.4-2.9v-2.9
			C69.4,17.8,73.2,16.1,80.4,15.7L80.4,15.7z M42.5,35.3c-2.3,0-4.1-1.8-4.1-4.1s1.8-4.1,4.1-4.1c2.3,0,4.1,1.8,4.1,4.1
			S44.8,35.3,42.5,35.3L42.5,35.3z M4.7,24.4c-0.4,0-0.7-0.1-1-0.4c-0.3-0.2-0.4-0.6-0.4-0.9V17c0-0.4,0.1-0.7,0.4-0.9
			c0.2-0.2,0.6-0.4,0.9-0.4c0,0,0,0,0.1,0c7.2,0.4,11,2.1,12.4,2.9v2.9C15.7,22.3,11.9,24,4.7,24.4L4.7,24.4z M40.7,24.1
			c-3.2,0.8-5.6,3.7-5.6,7.2c0,1.5,0.4,2.9,1.2,4c-0.4-0.1-0.7-0.4-0.9-0.8l-5.8-10.5H40.7z M58.9,67.9c-0.4,0.3-0.7,0.7-1.2,1
			c-1.2,0.8-2.9,0.7-3.9-0.4l0,0c0,0,0,0,0,0c-0.2-0.2-0.4-0.4-0.7-0.6c-2.1-1.6-4.9-1.7-7.2-0.4c-0.5,0.3-0.9,0.6-1.3,1l0,0
			c-0.6,0.6-1.4,0.9-2.2,0.9c-0.5,0-1-0.1-1.4-0.3c0,0,0,0-0.1,0c0,0,0,0,0,0c-0.3-0.1-0.5-0.3-0.7-0.5c-0.7-0.7-1.4-1.2-2.3-1.5
			c-0.7-0.3-1.5-0.4-2.3-0.4c0,0,0,0,0,0c-1.7,0-3.3,0.7-4.6,1.9l0,0c0,0,0,0,0,0c-0.1,0.1-0.1,0.1-0.2,0.2c0,0,0,0-0.1,0
			c-0.1,0.1-0.1,0.1-0.2,0.1c0,0,0,0,0,0c-0.9,0.6-2.1,0.7-3.1,0.1c-0.5-0.3-0.8-0.7-1.2-1c0.8-4.7,4.1-8.6,8.5-10
			c0.5-0.2,1.1-0.3,1.6-0.4c1.5-0.3,2.8-0.7,3.9-1.2c0.2-0.1,0.5-0.2,0.7-0.3v2.6c0,0.9,0.7,1.7,1.7,1.7c0.9,0,1.7-0.7,1.7-1.7v-2.6
			c1,0.4,2.2,0.9,3.6,1.3c0.4,0.1,0.8,0.2,1.3,0.3c1.3,0.3,2.6,0.8,3.8,1.5c0,0,0,0,0,0c1.1,0.7,2.1,1.5,3,2.5
			C57.5,63.4,58.5,65.5,58.9,67.9L58.9,67.9z M62.2,27C62.2,27,62.2,27,62.2,27l-9.9,17.7c-0.1,0.2-0.2,0.5-0.2,0.8V55
			c-0.8-0.3-1.6-0.5-2.4-0.7l-0.1,0c0,0-0.1,0-0.1,0c0,0,0,0,0,0c-3.6-0.7-5.9-2.4-5.9-2.4c0,0,0,0,0,0c0,0,0,0-0.1,0c0,0,0,0-0.1,0
			c0,0,0,0-0.1,0c-0.6-0.3-1.3-0.2-1.8,0.2c0,0-2.3,1.7-5.9,2.4c0,0,0,0,0,0c0,0-0.1,0-0.1,0l-0.1,0c0,0-0.1,0-0.1,0
			c-0.8,0.2-1.6,0.4-2.3,0.7v-9.5c0-0.3-0.1-0.6-0.2-0.8L22.8,27c-0.2-0.3-0.3-0.6-0.3-1c0-0.7,0.3-1.3,0.9-1.7
			c0.5-0.3,1-0.4,1.6-0.3c0.6,0.1,1,0.5,1.3,1l6.1,11c0.9,1.6,2.5,2.5,4.3,2.5h11.5c1.8,0,3.4-1,4.3-2.5l6.1-11
			c0.3-0.5,0.7-0.8,1.3-1c0.6-0.1,1.1,0,1.6,0.3C62.5,25,62.8,26.1,62.2,27L62.2,27z M49.7,34.5c-0.2,0.4-0.5,0.6-0.9,0.8
			c0.8-1.2,1.2-2.5,1.2-4c0-3.5-2.4-6.4-5.6-7.2h11.2L49.7,34.5z M49.7,34.5"/>
	</g>
	<path class="st0" d="M44.1,64.2c-0.3-0.7-0.9-1.1-1.7-1c-0.7,0-1.3,0.5-1.5,1.2c-0.2,0.7,0.1,1.4,0.6,1.8c0.6,0.4,1.3,0.4,1.9,0
		C44.1,65.8,44.3,64.9,44.1,64.2L44.1,64.2z M44.1,64.2"/>
	<path class="st0" d="M52,18.3c0.3,0.6,0.9,1.1,1.6,1c0.7,0,1.3-0.5,1.5-1.1c0.2-0.6,0-1.4-0.5-1.8c-0.6-0.5-1.4-0.5-2-0.1
		C51.9,16.7,51.7,17.6,52,18.3L52,18.3z M52,18.3"/>
</g>
</svg>
