<?xml version="1.0" encoding="utf-8"?>
<!-- Generator: Adobe Illustrator 22.0.0, SVG Export Plug-In . SVG Version: 6.00 Build 0)  -->
<svg version="1.1" id="Livello_1" xmlns="http://www.w3.org/2000/svg" xmlns:xlink="http://www.w3.org/1999/xlink" x="0px" y="0px"
	 viewBox="0 0 59.5 8.5" style="enable-background:new 0 0 59.5 8.5;" xml:space="preserve">
<style type="text/css">
	.st0{fill:#FFFFFF;}
</style>
<g>
	<path class="st0" d="M5.9,4h2.5v3.4C7.9,7.8,6.3,8.6,4.7,8.5C3.8,8.5,3,8.3,2.3,8C1.6,7.6,1,7.1,0.6,6.5C0.2,5.8,0,5.1,0,4.3
		s0.2-1.6,0.6-2.2s1-1.2,1.7-1.5C3,0.2,3.8,0,4.7,0S6.3,0.1,7,0.4s1.2,0.7,1.6,1.2L6.8,3.1C6.2,2.5,5.6,2.2,4.9,2.2
		c-0.6,0-1.1,0.3-1.5,0.6C3,3.2,2.9,3.6,2.9,4.3c0,0.6,0.2,1.1,0.5,1.5c0.4,0.4,0.8,0.6,1.5,0.6c0.4,0,0.7-0.1,1-0.2V4z"/>
	<path class="st0" d="M9.6,0.2h2.8v8.1H9.6V0.2z"/>
	<path class="st0" d="M15.6,2.3h-2.5V0.2h7.7v2.1h-2.5v6h-2.8v-6H15.6z"/>
	<path class="st0" d="M26.9,6.9h-3.2l-0.6,1.4h-2.9l3.7-8.1h2.8l3.7,8.1h-2.9L26.9,6.9z M26.1,4.9l-0.8-2l-0.8,2H26.1z"/>
	<path class="st0" d="M39.1,0.2v8.1h-2.3l-3.2-3.7v3.7h-2.8V0.2h2.3l3.2,3.7V0.2H39.1z"/>
	<path class="st0" d="M40.5,0.2h4.1c0.9,0,1.8,0.2,2.5,0.5s1.3,0.8,1.7,1.4s0.6,1.3,0.6,2.2c0,0.8-0.2,1.5-0.6,2.2
		c-0.4,0.6-1,1.1-1.7,1.4s-1.5,0.5-2.5,0.5h-4.1V0.2z M44.5,6.3c0.6,0,1.1-0.3,1.5-0.6s0.5-0.8,0.5-1.4S46.3,3.2,46,2.9
		s-0.9-0.5-1.5-0.5h-1.2v3.9H44.5L44.5,6.3z"/>
	<path class="st0" d="M52.4,8c-0.7-0.4-1.3-0.9-1.7-1.5s-0.6-1.4-0.6-2.2s0.2-1.5,0.6-2.2c0.4-0.6,1-1.2,1.7-1.5
		C53.1,0.2,53.9,0,54.8,0c0.9,0,1.7,0.2,2.4,0.5c0.7,0.4,1.3,0.9,1.7,1.5s0.6,1.4,0.6,2.2s-0.2,1.5-0.6,2.2c-0.4,0.6-1,1.2-1.7,1.5
		c-0.7,0.4-1.2,0.5-2.4,0.5S53.1,8.3,52.4,8z M55.7,6c0.3-0.2,0.5-0.4,0.7-0.7c0.2-0.3,0.3-0.7,0.3-1.1s-0.1-0.8-0.3-1.1
		S56,2.6,55.7,2.4s-0.6-0.2-1-0.2s-0.7,0.1-1,0.2c-0.3,0.2-0.5,0.4-0.8,0.7s-0.3,0.7-0.3,1.1S52.8,5,53,5.3c0.2,0.3,0.4,0.5,0.7,0.7
		s0.6,0.2,1,0.2C55.1,6.2,55.6,6.1,55.7,6z"/>
</g>
</svg>
