<?xml version="1.0" encoding="utf-8"?>
<!-- Generator: Adobe Illustrator 22.0.0, SVG Export Plug-In . SVG Version: 6.00 Build 0)  -->
<svg version="1.1" id="Livello_1" xmlns="http://www.w3.org/2000/svg" xmlns:xlink="http://www.w3.org/1999/xlink" x="0px" y="0px"
	 viewBox="0 0 85 85" style="enable-background:new 0 0 85 85;" xml:space="preserve">
<style type="text/css">
	.st0{fill:#FFFFFF;}
</style>
<g>
	<g>
		<path class="st0" d="M81.1,8.3l-2.9-1.1c-0.9-0.3-1.8,0.1-2.1,1c-0.3,0.9,0.1,1.8,1,2.1l2.9,1.1c1.3,0.5,2,1.9,1.5,3.3L80,18.9
			c-0.5,1.3-1.9,2-3.3,1.5l-8.4-3l-8.3-3c-0.1,0-0.3-0.1-0.4-0.2c-0.2-0.1-0.4-0.2-0.5-0.4l2.1-8.3c0.6-0.3,1.4-0.4,2-0.1l1.8,0.6
			c0.9,0.3,1.8-0.1,2.1-1c0.3-0.9-0.1-1.8-1-2.1l-1.8-0.6c-1.3-0.5-2.7-0.5-4,0C59.4,0.9,57.7,0,55.9,0h-27c-1.8,0-3.5,0.8-4.6,2.2
			c-1.2-0.4-2.5-0.4-3.7,0.1l-16.7,6c-1.5,0.5-2.7,1.6-3.3,3c-0.7,1.4-0.7,3-0.2,4.5L1.9,20c0.8,2.3,2.9,3.7,5.2,3.9l14.3,17.4
			l-4.2,10.2c0,0,0,0.1,0,0.1c-1,3,0.1,6.2,2.7,7.9c0.8,0.5,1.6,0.8,2.5,1c0.6,1.7,2.2,2.8,4.1,2.8h4.8c0.8,0,1.6-0.2,2.2-0.5v16.9
			c0,3,2.4,5.4,5.4,5.4c1.4,0,2.7-0.6,3.7-1.5c1,0.9,2.3,1.5,3.7,1.5c3,0,5.4-2.4,5.4-5.4V62.8c0.7,0.3,1.4,0.5,2.2,0.5h4.8
			c1.9,0,3.5-1.2,4.1-2.8c1.8-0.4,3.3-1.4,4.3-3c1.2-1.9,1.4-4.3,0.6-6.3l-4.2-10.7l14.5-16.5c2.3-0.1,4.4-1.6,5.3-3.9l1.5-4.2
			C85.8,12.8,84.2,9.4,81.1,8.3L81.1,8.3z M53.2,46.9c-1.3-0.8-2.8-1.2-4.4-1.2h-0.1c0.8-1.2,1.2-2.6,1.2-4.1c0-4.1-3.3-7.4-7.4-7.4
			s-7.4,3.3-7.4,7.4c0,1.5,0.5,2.9,1.2,4.1h-0.1c-2,0-3.9,0.7-5.4,1.9l-5.9-7.1V25.5l5.5-1.4c0.6-0.2,1.1-0.4,1.4-0.7
			c0.1,0,0.3,0,0.4,0h20.7c0.2,0,0.4,0,0.6,0c0.4,0.3,0.9,0.5,1.4,0.7l4.8,1.3v14.1L53.2,46.9z M38.4,41.6c0-2.3,1.8-4.1,4.1-4.1
			c2.3,0,4.1,1.8,4.1,4.1c0,2.3-1.8,4.1-4.1,4.1C40.3,45.7,38.4,43.8,38.4,41.6L38.4,41.6z M19.6,23.4c-0.6,0.2-2.2-0.1-3.5-0.9
			l-1.5-0.9l11.5-4.2c0.1,0,0.2-0.1,0.3-0.1c0.2-0.1,0.5-0.2,0.7-0.4L29,21L19.6,23.4z M11.2,23.5l3.2,1.9c1.9,1.1,4.4,1.6,6,1.2
			l1.2-0.3v10l-10.7-13C11,23.4,11.1,23.5,11.2,23.5L11.2,23.5z M70.7,21.8l-1.4,0.8c-1.3,0.8-2.9,1-3.5,0.9l-9.6-2.5l1.7-3.9
			c0.2,0.1,0.3,0.2,0.5,0.3c0.2,0.1,0.3,0.2,0.5,0.2l7.2,2.6L70.7,21.8z M63.1,26.2l1.9,0.5c0.4,0.1,0.8,0.1,1.3,0.1
			c1.5,0,3.3-0.5,4.8-1.4l2.3-1.4L63.1,35.7V26.2z M28.9,3.3h27c1,0,1.8,0.5,2.2,1.3L56,12.9c-0.1,0-0.1,0-0.2,0h-6.5
			c-0.9,0-1.7,0.7-1.7,1.7v0c0,0.9,0.7,1.7,1.7,1.7h5.3L53,20.1c0,0-0.1,0-0.1,0H32.3l-1.9-3.9h5.2c0.9,0,1.7-0.7,1.7-1.7v0
			c0-0.9-0.7-1.7-1.7-1.7h-6.6l-2.2-8.3C27.2,3.8,28,3.3,28.9,3.3L28.9,3.3z M5,18.9l-1.5-4.2C3,13.4,3.7,11.9,5,11.4l16.7-6
			c0.6-0.2,1.3-0.2,1.8,0l2.2,8.4c-0.2,0.2-0.5,0.4-0.8,0.5l-12.1,4.4l-2.5,0.9c0,0,0,0,0,0l-2,0.7c-0.6,0.2-1.3,0.2-2-0.1
			C5.7,20,5.2,19.5,5,18.9L5,18.9z M20.3,52.7l3.5-8.5l4.9,5.9c-0.7,1.3-1.2,2.8-1.2,4.4v0.1h-1c-1.7,0-3.2,1-3.9,2.5
			c-0.3-0.1-0.6-0.2-0.8-0.4C20.4,55.8,19.8,54.2,20.3,52.7L20.3,52.7z M58.6,59.9h-4.8c-1.2,0-2.2-1-2.2-2.2v-2.3
			c0-0.9-0.7-1.7-1.7-1.7c-0.9,0-1.7,0.7-1.7,1.7v24.3c0,1.1-0.9,2-2,2c-1.1,0-2.1-0.9-2.1-2v-15c0-0.9-0.7-1.7-1.7-1.7
			c-0.9,0-1.7,0.7-1.7,1.7v15c0,1.1-0.9,2-2.1,2c-1.1,0-2-0.9-2-2V57.9c0-0.1,0-0.1,0-0.2v-2.3c0-0.9-0.7-1.7-1.7-1.7
			c-0.9,0-1.7,0.7-1.7,1.7v2.4c-0.1,1.2-1,2.1-2.2,2.1h-4.8c-0.6,0-1-0.5-1-1c0-0.6,0.5-1,1-1h2.7c0.9,0,1.7-0.7,1.7-1.7v-1.8
			c0-3,2.4-5.4,5.4-5.4h12.6c3,0,5.4,2.4,5.4,5.4v1.8c0,0.9,0.7,1.7,1.7,1.7h2.7c0.6,0,1,0.5,1,1C59.7,59.5,59.2,59.9,58.6,59.9
			L58.6,59.9z M64.5,52.3C64.5,52.3,64.5,52.3,64.5,52.3c0.5,1.1,0.3,2.3-0.3,3.3c-0.4,0.6-1,1.1-1.6,1.4c-0.7-1.5-2.2-2.5-3.9-2.5
			h-1v-0.1c0-2-0.7-3.9-1.8-5.4l5.2-5.9L64.5,52.3z M64.5,52.3"/>
	</g>
	<path class="st0" d="M70,7.3c0.3,0.6,0.9,1.1,1.6,1c0.7,0,1.3-0.5,1.5-1.2c0.2-0.7,0-1.4-0.6-1.8c-0.6-0.4-1.3-0.5-1.9-0.1
		C70,5.7,69.7,6.5,70,7.3L70,7.3z M70,7.3"/>
	<path class="st0" d="M40.9,15.2c0.3,0.6,0.9,1,1.6,1c0.7,0,1.3-0.5,1.5-1.2c0.2-0.7-0.1-1.4-0.6-1.8c-0.6-0.4-1.3-0.4-1.9,0
		C40.8,13.6,40.6,14.4,40.9,15.2L40.9,15.2z M40.9,15.2"/>
</g>
</svg>
