<?xml version="1.0" encoding="utf-8"?>
<!-- Generator: Adobe Illustrator 22.0.0, SVG Export Plug-In . SVG Version: 6.00 Build 0)  -->
<svg version="1.1" id="Livello_1" xmlns="http://www.w3.org/2000/svg" xmlns:xlink="http://www.w3.org/1999/xlink" x="0px" y="0px"
	 viewBox="0 0 85 85" style="enable-background:new 0 0 85 85;" xml:space="preserve">
<style type="text/css">
	.st0{fill:#FFFFFF;}
</style>
<g>
	<g>
		<path class="st0" d="M83.4,43.6h-4.2c-0.5,0-1,0.2-1.3,0.6l-2.5,3.2c-0.6,0.7-0.4,1.8,0.3,2.3c0.3,0.2,0.7,0.4,1,0.4
			c0.5,0,1-0.2,1.3-0.6l2-2.6h3.4c0.9,0,1.7-0.7,1.7-1.7C85,44.3,84.3,43.6,83.4,43.6L83.4,43.6z M83.4,43.6"/>
		<path class="st0" d="M69.8,57.2c-0.7-0.6-1.8-0.4-2.3,0.3l-2.3,3h-7.3l-5.8-19.9c1.7-0.6,2.9-2.3,2.9-4.2c0-2.5-2-4.5-4.5-4.5
			h-0.9l-1.2-4.1c-0.3-0.9-1.2-1.4-2.1-1.1c-0.9,0.3-1.4,1.2-1.1,2.1l0.9,3.2h-0.9L39,26c0.1-0.1,0.3-0.2,0.4-0.3
			c1.8-1.2,2.9-3.1,3.3-5.2c0.4-2.1-0.1-4.3-1.4-6c-1.2-1.8-3.1-2.9-5.2-3.3c-4.4-0.7-8.5,2.2-9.3,6.6c-0.5,2.6,0.4,5.2,2.2,7
			c-0.5,0.2-0.9,0.5-1.3,0.8c-0.8-1.6-2.3-2.9-4.2-3.2c-1.5-0.3-3,0.1-4.2,0.9c-1.3,0.9-2.1,2.2-2.4,3.8c-0.2,1-0.1,2,0.2,2.9
			c-0.1,0-0.2,0.1-0.2,0.1c-0.4,0.3-0.6,0.6-0.7,1.1l-2.3,13.4c-0.4,2.4,1.1,4.7,3.5,5.1l2.8,0.5c0.3,0,0.5,0.1,0.8,0.1
			c0.2,0,0.4,0,0.6,0L21,58.2l-4,8.3c-0.4,0.8-0.6,1.6-0.6,2.5c0,0.9,0.2,1.7,0.5,2.4H15c-0.3,0-0.6,0.1-0.9,0.3L0.8,80.2
			c-0.8,0.5-1,1.5-0.5,2.3c0.3,0.5,0.9,0.8,1.4,0.8c0.3,0,0.6-0.1,0.9-0.3l12.9-8.2h6.3c0.1,0,0.2,0,0.3,0c0.1,0,0.2,0,0.3,0h17.7
			c0.4,0,0.8-0.2,1.1-0.5l11.1-10.5H66c0.5,0,1-0.2,1.3-0.6l2.8-3.6C70.7,58.8,70.6,57.8,69.8,57.2L69.8,57.2z M28.3,51.1
			c-0.6-0.1-1.4-0.2-1.9-0.5c-1-0.5-1.6-1.7-1.4-2.8c0.1-0.3,0.1-0.6,0.2-0.9c4.8-0.2,8.2-1.6,10.4-3l-0.4,2.3
			c-0.1,0.7,0.2,1.5,0.9,1.8l5.9,2.8l6.9,8.7c0.8,1.1,0.7,2.6-0.4,3.4c-1.1,0.8-2.6,0.7-3.4-0.4l-5.9-7.5c-0.2-0.2-0.4-0.4-0.6-0.5
			l-5-2.4c-0.1-0.1-0.3-0.1-0.4-0.1L28.3,51.1z M51.5,57.4l-7.1-9c-0.1-0.1-0.3-0.3-0.4-0.4c-0.1,0-0.1-0.1-0.2-0.1l-5.1-2.5
			l0.8-4.6h9.3l5.7,19.6h-1.7C52.6,59.4,52.2,58.3,51.5,57.4L51.5,57.4z M44.6,35.2h3.8c0,0,0,0,0,0c0,0,0,0,0,0h2.2
			c0.6,0,1.2,0.5,1.2,1.2s-0.5,1.2-1.2,1.2H50c0,0,0,0,0,0H38.7l-3.4-2.9c-0.7-0.6-1.7-0.5-2.3,0.2c-0.6,0.7-0.5,1.7,0.2,2.3
			l2.6,2.3c-1.3,1.4-4.3,3.6-10,4l0.6-3.6l1.2-6.7c0,0,0,0,0,0l0.3-2c0.3-1.9,2-4,5.6-4c0.1,0,0.2,0,0.3,0c0,0,0,0,0,0
			c1.1,0,2.2,0.4,2.9,1.1c0,0,0,0,0.1,0.1l6.7,6.4C43.7,35.1,44.1,35.2,44.6,35.2L44.6,35.2z M30.1,18.4c0.4-2.3,2.4-3.9,4.7-3.9
			c0.3,0,0.5,0,0.8,0.1c1.2,0.2,2.3,0.9,3.1,1.9c0.7,1,1,2.3,0.8,3.5c-0.4,2.3-2.4,3.9-4.7,3.9c-0.3,0-0.5,0-0.8-0.1
			C31.4,23.4,29.7,21,30.1,18.4L30.1,18.4z M20.2,27.7c0.1-0.7,0.5-1.2,1-1.6c0.4-0.3,0.9-0.4,1.3-0.4c0.1,0,0.3,0,0.4,0
			c1.3,0.2,2.2,1.5,2,2.9c-0.1,0.7-0.5,1.2-1,1.6c-0.5,0.4-1.1,0.5-1.7,0.4C20.9,30.3,20,29,20.2,27.7L20.2,27.7z M20.8,47L18,46.5
			c-0.5-0.1-0.9-0.7-0.8-1.3l2-11.8l4.7,0.8l-0.8,4.6l-1.3,7.3C21.7,46.7,21.3,47,20.8,47L20.8,47z M21.1,71.2
			c-0.8-0.4-1.4-1.3-1.4-2.2c0-0.4,0.1-0.7,0.2-1.1l4.2-8.6c0.1-0.2,0.1-0.4,0.2-0.6l0.3-5.3c1.3,0.7,2.7,0.8,4.1,1.1
			c0.3,0,0.5,0.1,0.8,0.1l-0.4,5.4l-4.9,10c-0.4,0.8-1.2,1.3-2,1.4h-0.4C21.6,71.4,21.4,71.4,21.1,71.2L21.1,71.2z M39.4,71.5H27.4
			l5-10.2c0-0.1,0.1-0.1,0.1-0.2c0-0.1,0.1-0.3,0.1-0.4l0.4-5.2l3.9,1.9l5.7,7.2c0.7,0.8,1.5,1.4,2.4,1.8L39.4,71.5z M39.4,71.5"/>
	</g>
	<path class="st0" d="M64.5,23.3H73c3.5,0,6.4-2.9,6.4-6.4c0-3.5-2.9-6.4-6.4-6.4c-0.8,0-1.7,0.2-2.5,0.5c-1.4-1.8-3.6-3-6-3
		c-4.2,0-7.6,3.4-7.6,7.6c0,2,0.8,3.9,2.2,5.4C60.6,22.5,62.5,23.3,64.5,23.3L64.5,23.3z M64.5,11.4c1.7,0,3.3,1,3.9,2.6
		c0.2,0.5,0.6,0.8,1.1,1c0.5,0.1,1,0,1.4-0.3c0.6-0.5,1.2-0.7,2-0.7c1.7,0,3.1,1.4,3.1,3.1c0,1.7-1.4,3.1-3.1,3.1h-8.5
		c-1.1,0-2.2-0.4-3-1.3c-0.8-0.8-1.3-1.9-1.3-3C60.2,13.3,62.1,11.4,64.5,11.4L64.5,11.4z M64.5,11.4"/>
	<g>
		<path class="st0" d="M10,19.1c3.3,0,6.1-2.7,6.1-6.1C16.1,9.7,13.4,7,10,7C8.4,7,6.9,7.6,5.8,8.8C4.6,9.9,4,11.4,4,13.1
			C4,16.4,6.7,19.1,10,19.1L10,19.1z M8.1,11.1c0.5-0.5,1.2-0.8,1.9-0.8c1.5,0,2.7,1.2,2.7,2.7c0,1.5-1.2,2.7-2.7,2.7
			c-1.5,0-2.7-1.2-2.7-2.7C7.3,12.3,7.6,11.6,8.1,11.1L8.1,11.1z M8.1,11.1"/>
		<path class="st0" d="M0.8,9.7l0.8,0.4c0.3,0.2,0.5,0.2,0.8,0.2c0.6,0,1.1-0.3,1.4-0.8c0.5-0.8,0.2-1.8-0.6-2.3L2.5,6.8
			C1.7,6.4,0.7,6.6,0.2,7.4C-0.2,8.2,0,9.2,0.8,9.7L0.8,9.7z M0.8,9.7"/>
		<path class="st0" d="M19.3,16.5L18.5,16c-0.8-0.5-1.8-0.2-2.3,0.6c-0.5,0.8-0.2,1.8,0.6,2.3l0.8,0.4c0.3,0.2,0.5,0.2,0.8,0.2
			c0.6,0,1.1-0.3,1.4-0.8C20.3,18,20,17,19.3,16.5L19.3,16.5z M19.3,16.5"/>
		<path class="st0" d="M1.7,19.6c0.3,0,0.6-0.1,0.8-0.2l0.8-0.4c0.8-0.5,1.1-1.5,0.6-2.3c-0.5-0.8-1.5-1.1-2.3-0.6l-0.8,0.4
			C0,17-0.2,18,0.2,18.8C0.5,19.3,1.1,19.6,1.7,19.6L1.7,19.6z M1.7,19.6"/>
		<path class="st0" d="M17.6,10.4c0.3,0,0.6-0.1,0.8-0.2l0.8-0.5c0.8-0.5,1.1-1.5,0.6-2.3c-0.5-0.8-1.5-1.1-2.3-0.6l-0.8,0.4
			c-0.8,0.5-1.1,1.5-0.6,2.3C16.5,10.1,17.1,10.4,17.6,10.4L17.6,10.4z M17.6,10.4"/>
		<path class="st0" d="M10,6c0.9,0,1.7-0.7,1.7-1.7V3.4c0-0.9-0.7-1.7-1.7-1.7c-0.9,0-1.7,0.7-1.7,1.7v0.9C8.4,5.3,9.1,6,10,6L10,6z
			 M10,6"/>
	</g>
	<path class="st0" d="M8.4,21.9v0.9c0,0.9,0.7,1.7,1.7,1.7c0.9,0,1.7-0.7,1.7-1.7v-0.9c0-0.9-0.7-1.7-1.7-1.7
		C9.1,20.2,8.4,21,8.4,21.9L8.4,21.9z M8.4,21.9"/>
	<path class="st0" d="M74.1,52.7c-0.3-0.7-0.9-1.1-1.7-1c-0.7,0-1.3,0.5-1.5,1.2c-0.2,0.7,0.1,1.4,0.6,1.8c0.6,0.4,1.3,0.4,1.9,0
		C74.2,54.3,74.4,53.4,74.1,52.7L74.1,52.7z M74.1,52.7"/>
</g>
</svg>
