<?xml version="1.0" encoding="UTF-8"?>
<svg width="64px" height="57px" viewBox="0 0 64 57" version="1.1" xmlns="http://www.w3.org/2000/svg" xmlns:xlink="http://www.w3.org/1999/xlink">
    <!-- Generator: Sketch 55.2 (78181) - https://sketchapp.com -->
    <title>forum</title>
    <desc>Created with Sketch.</desc>
    <g id="forum" stroke="none" stroke-width="1" fill="none" fill-rule="evenodd">
        <g id="Group-2-Copy" transform="translate(1.500000, 1.951613)" fill-rule="nonzero" stroke="#888888" stroke-width="3">
            <path d="M37.4515487,48.7183951 C36.4116418,50.0777222 33.5004845,52.8125393 29.5057669,51.9227183 C29.3697514,51.9474429 29.239151,51.8588843 29.2140671,51.7249409 C29.1999166,51.6493792 29.2223391,51.5716399 29.2747121,51.5146843 C30.7534403,49.9065669 32.4269059,47.5497937 32.8192286,46.1335898 C31.9097365,44.994425 29.5057669,42.7177419 29.5057669,38.4437649 C29.5057669,38.3552206 29.5071993,38.2670069 29.5100467,38.1791323 C29.7244671,31.5618179 36.8577272,27.5277778 44.99268,27.5277778 C53.2437213,27.5277778 60.5571338,32.2703954 60.5571338,38.5654906 C60.5571338,44.8605857 53.2437213,50.0777222 44.99268,50.0777222 C42.8914446,50.0777222 41.0522631,49.9842523 39.2093191,49.4335591 C38.736867,49.2923848 38.736867,49.2923848 37.4515487,48.7183951 Z" id="icon-/-speechbubble-/-message" transform="translate(44.883523, 39.812500) scale(-1, 1) translate(-44.883523, -39.812500) "></path>
            <path d="M45.4374126,27.3450396 C45.2217558,27.3387193 45.0052856,27.3355325 44.7881146,27.3355325 C37.9285893,27.3355325 31.7148185,30.5974222 29.7844553,35.3035437 C28.1979694,35.5554031 26.567122,35.6879983 24.9124462,35.6879983 C21.5872344,35.6879983 18.6767237,35.540071 15.7602588,34.6685328 C15.0126018,34.4451076 13.6727041,33.8446567 12.1922106,33.1124776 C9.9606939,35.0044327 6.42067327,36.3906819 1.57214874,37.2712256 C1.3569037,37.3103553 1.15022807,37.1702007 1.11053287,36.9582192 C1.0881395,36.8386336 1.12362327,36.7156019 1.2065037,36.6254627 C3.54659582,34.0804236 5.02706788,31.6872476 5.64791985,29.4459346 C5.50838319,29.345524 5.39705098,29.2579364 5.31824495,29.1855188 C2.18112547,26.3027108 0.404356061,23.6018612 0.404356061,17.2758621 C0.404356061,7.31592625 11.8551464,0 24.9124462,0 C37.9697458,0 49.5432449,7.50576268 49.5432449,17.4685077 C49.5432449,21.0912521 48.0129256,24.4884189 45.4374126,27.3450396 Z" id="Combined-Shape"></path>
        </g>
        <path d="M26.355453,24.5629095 C25.2275233,24.5629095 24.6635585,23.7411322 24.6635585,22.6776556 L24.6635585,22.3070502 C24.6635585,20.2445502 25.6625819,18.8749212 27.7573085,17.6180853 C29.7070155,16.4418158 30.3998866,15.4750189 30.3998866,13.8959173 C30.3998866,11.9945502 28.933578,10.6893744 26.7905116,10.6893744 C24.8408046,10.6893744 23.5517421,11.6561712 23.0361171,13.4125189 C22.7138514,14.4115423 22.2143397,14.7660345 21.4086757,14.7660345 C20.4096522,14.7660345 19.8456874,14.1698431 19.8456874,13.186933 C19.8456874,12.4940619 19.9907069,11.930097 20.280746,11.3016791 C21.2636561,9.07804624 23.7128749,7.72453062 26.9355311,7.72453062 C31.1410975,7.72453062 34.0576014,10.1898627 34.0576014,13.7508978 C34.0576014,16.2484564 32.8007655,17.9564642 30.6738124,19.2294134 C28.5951991,20.4540228 28.0473475,21.2758002 27.9667811,22.8549017 C27.8862147,23.8861517 27.4028163,24.5629095 26.355453,24.5629095 Z M26.355453,31.4110541 C25.1791835,31.4110541 24.2446132,30.5087103 24.2446132,29.3324408 C24.2446132,28.1561712 25.1791835,27.2538275 26.355453,27.2538275 C27.5639491,27.2538275 28.4824061,28.1561712 28.4824061,29.3324408 C28.4824061,30.5087103 27.5639491,31.4110541 26.355453,31.4110541 Z" id="?" fill="#888888" fill-rule="nonzero"></path>
        <path d="M41.1745531,36.8202416 L51.6544672,36.8202416" id="Path-2" stroke="#888888" stroke-width="2.5" stroke-linecap="round"></path>
        <path d="M41.2343859,40.8000532 L51.7143001,40.8000532" id="Path-2-Copy" stroke="#888888" stroke-width="2.5" stroke-linecap="round"></path>
        <path d="M41.1745531,44.7798648 L47.1197362,44.7798648" id="Path-2-Copy-2" stroke="#888888" stroke-width="2.5" stroke-linecap="round"></path>
    </g>
</svg>