<?xml version="1.0" encoding="utf-8"?>
<!-- Generator: Adobe Illustrator 22.0.0, SVG Export Plug-In . SVG Version: 6.00 Build 0)  -->
<svg version="1.1" id="Livello_1" xmlns="http://www.w3.org/2000/svg" xmlns:xlink="http://www.w3.org/1999/xlink" x="0px" y="0px"
	 viewBox="0 0 45 45" style="enable-background:new 0 0 45 45;" xml:space="preserve">
<style type="text/css">
	.st0{fill:#F0F0F0;}
	.st1{fill:#F0F0F0;fill-opacity:0.264;}
</style>
<title>icon / device / ipad</title>
<desc>Created with Sketch.</desc>
<g id="icon-_x2F_-device-_x2F_-ipad">
	<path id="Combined-Shape" class="st0" d="M9.5,1h26c1.4,0,2.5,1.1,2.5,2.5v37.4c0,1.4-1.1,2.5-2.5,2.5h-26c-1.4,0-2.5-1.1-2.5-2.5
		V3.5C7,2.1,8.1,1,9.5,1z M9.5,2.5c-0.5,0-0.9,0.4-0.9,0.9v37.4c0,0.5,0.4,0.9,0.9,0.9h26c0.5,0,0.9-0.4,0.9-0.9V3.5
		c0-0.5-0.4-0.9-0.9-0.9H9.5z"/>
	<path id="Rectangle-Copy-3-path" class="st1" d="M9.5,2.5c-0.5,0-0.9,0.4-0.9,0.9v37.4c0,0.5,0.4,0.9,0.9,0.9h26
		c0.5,0,0.9-0.4,0.9-0.9V3.5c0-0.5-0.4-0.9-0.9-0.9H9.5z"/>
</g>
</svg>
